<svg xmlns="http://www.w3.org/2000/svg" version="1.1" xmlns:xlink="http://www.w3.org/1999/xlink" xmlns:svgjs="http://svgjs.dev/svgjs" width="1000" height="370" viewBox="0 0 1000 370"><g transform="matrix(1,0,0,1,0.16994382022460286,-0.6574344110088362)"><svg viewBox="0 0 356 132" data-background-color="#ffffff" preserveAspectRatio="xMidYMid meet" height="370" width="1000" xmlns="http://www.w3.org/2000/svg" xmlns:xlink="http://www.w3.org/1999/xlink"><defs></defs><g id="tight-bounds" transform="matrix(1,0,0,1,-0.06049999999996203,0.23454558305249407)"><svg viewBox="0 0 356.12052 131.53075801186196" height="131.53075801186196" width="356.12052"><g><svg viewBox="0 0 356.12052 131.53075801186196" height="131.53075801186196" width="356.12052"><g transform="matrix(1,0,0,1,0,56.209910248695735)"><svg viewBox="0 0 356.12052 75.32084776316623" height="75.32084776316623" width="356.12052"><g><path d="M0 75.321v-75.321h356.121v75.321z" fill="#729343" stroke="transparent" stroke-width="0" rx="0%" data-fill-palette-color="tertiary"></path><path d="M3.283 72.038v-68.755h349.554v68.755z" fill="#ffffff" stroke="transparent" stroke-width="0" rx="0%" data-fill-palette-color="quaternary"></path><path d="M9.85 65.471v-55.621h336.421v55.621z" fill="#729343" stroke="transparent" stroke-width="0" data-fill-palette-color="tertiary"></path></g><g transform="matrix(1,0,0,1,19.69974,19.69974)"><svg viewBox="0 0 316.72104 35.921367763166224" height="35.921367763166224" width="316.72104"><g><svg viewBox="0 0 316.72104 18.142637678100265" height="18.142637678100265" width="316.72104"><g transform="matrix(1,0,0,1,0,0)"><svg width="316.72104" viewBox="1.4200000762939453 -36.060001373291016 638.4000244140625 36.56999969482422" height="18.142637678100265" data-palette-color="#ffffff"><path d="M18.24 0.51L18.24 0.51Q13.01 0.51 9.24-1.68 5.47-3.88 3.44-7.87 1.42-11.87 1.42-17.24L1.42-17.24 1.42-18.29Q1.42-23.46 3.39-27.47 5.37-31.47 9.06-33.76 12.74-36.06 17.85-36.06L17.85-36.06Q21.44-36.06 24.54-35.02 27.64-33.98 30-31.98L30-31.98 30-23.58 25-23.58 24.32-29.03Q23.51-29.61 22.55-30.03 21.58-30.44 20.45-30.66 19.31-30.88 17.99-30.88L17.99-30.88Q14.87-30.88 12.65-29.33 10.42-27.78 9.24-24.98 8.06-22.17 8.06-18.33L8.06-18.33 8.06-17.24Q8.06-13.35 9.3-10.52 10.55-7.69 12.85-6.16 15.16-4.64 18.36-4.64L18.36-4.64Q19.95-4.64 21.51-4.99 23.07-5.35 24.29-5.93L24.29-5.93 25-10.94 29.96-10.94 29.96-2.61Q27.91-1.27 24.88-0.38 21.85 0.51 18.24 0.51ZM47.87 0L33.57 0 33.57-4 37.4-4.74 37.4-30.79 33.57-31.52 33.57-35.55 47.87-35.55 47.87-31.52 44.04-30.79 44.04-20.09 59.06-20.09 59.06-30.79 55.22-31.52 55.22-35.55 59.06-35.55 65.7-35.55 69.53-35.55 69.53-31.52 65.7-30.79 65.7-4.74 69.53-4 69.53 0 55.22 0 55.22-4 59.06-4.74 59.06-14.97 44.04-14.97 44.04-4.74 47.87-4 47.87 0ZM82.03 0L70.33 0 70.33-4 72.9-4.37 84.44-35.55 91.06-35.55 102.51-4.37 105.05-4 105.05 0 93.35 0 93.35-4 95.87-4.47 94.14-9.69 81.27-9.69 79.54-4.47 82.03-4 82.03 0ZM87.28-27.29L82.91-14.7 92.5-14.7 88.13-27.34 87.79-28.37 87.64-28.37 87.28-27.29ZM122.06 0L107.76 0 107.76-4 111.56-4.74 111.56-30.79 107.76-31.52 107.76-35.55 111.56-35.55 121.26-35.55 131.32-10.3 131.46-10.3 141.2-35.55 154.78-35.55 154.78-31.52 150.94-30.79 150.94-4.74 154.78-4 154.78 0 140.47 0 140.47-4 144.5-4.74 144.5-12.28 144.6-28.08 144.47-28.1 133.64-0.66 128.73-0.66 117.62-27.93 117.47-27.91 117.86-12.87 117.86-4.74 122.06-4 122.06 0ZM175.04 0L157.68 0 157.68-4 161.51-4.74 161.51-30.79 157.68-31.52 157.68-35.55 161.51-35.55 173.38-35.55Q179.51-35.55 182.95-33.12 186.39-30.69 186.39-25.83L186.39-25.83Q186.39-23.39 185.04-21.46 183.68-19.53 181.22-18.58L181.22-18.58Q183.34-18.12 184.78-16.92 186.22-15.72 186.97-14.01 187.71-12.3 187.71-10.28L187.71-10.28Q187.71-5.22 184.38-2.61 181.04 0 175.04 0L175.04 0ZM168.15-15.92L168.15-5.1 175.04-5.1Q177.97-5.1 179.52-6.42 181.07-7.74 181.07-10.28L181.07-10.28Q181.07-12.08 180.5-13.34 179.92-14.6 178.71-15.26 177.5-15.92 175.62-15.92L175.62-15.92 168.15-15.92ZM168.15-30.42L168.15-20.61 173.84-20.61Q176.65-20.61 178.2-21.85 179.75-23.1 179.75-25.42L179.75-25.42Q179.75-27.98 178.14-29.2 176.53-30.42 173.38-30.42L173.38-30.42 168.15-30.42ZM218.3 0L190.39 0 190.39-4 194.23-4.74 194.23-30.79 190.39-31.52 190.39-35.55 217.71-35.55 217.71-26.17 212.59-26.17 212.22-30.44 200.87-30.44 200.87-20.95 213.12-20.95 213.12-15.8 200.87-15.8 200.87-5.08 212.85-5.08 213.22-9.45 218.3-9.45 218.3 0ZM236.61 0L222.3 0 222.3-4 226.13-4.74 226.13-30.79 222.3-31.52 222.3-35.55 238.95-35.55Q242.98-35.55 245.87-34.3 248.76-33.06 250.29-30.71 251.82-28.37 251.82-25.1L251.82-25.1Q251.82-21.97 250.3-19.58 248.79-17.19 246.07-15.83 243.34-14.48 239.76-14.45L239.76-14.45 232.77-14.43 232.77-4.74 236.61-4 236.61 0ZM253.38 0L245.3 0 238.9-15.87 245-17.11 250.47-4.69 253.38-4.05 253.38 0ZM232.77-30.42L232.77-19.56 238.73-19.56Q242.03-19.56 243.61-20.91 245.2-22.27 245.2-24.85L245.2-24.85Q245.2-27.39 243.64-28.91 242.07-30.42 238.95-30.42L238.95-30.42 232.77-30.42ZM284.77 0.51L284.77 0.51Q281.21 0.51 278.3-0.82 275.4-2.15 273.31-4.58 271.22-7.01 270.1-10.29 268.97-13.57 268.97-17.5L268.97-17.5 268.97-18.04Q268.97-21.95 270.1-25.23 271.22-28.52 273.31-30.94 275.4-33.37 278.29-34.72 281.18-36.06 284.75-36.06L284.75-36.06Q288.38-36.06 291.3-34.72 294.22-33.37 296.32-30.94 298.42-28.52 299.53-25.23 300.64-21.95 300.64-18.04L300.64-18.04 300.64-17.5Q300.64-13.57 299.53-10.29 298.42-7.01 296.33-4.58 294.24-2.15 291.31-0.82 288.38 0.51 284.77 0.51ZM284.77-4.71L284.77-4.71Q287.9-4.71 289.95-6.31 292-7.91 293.01-10.79 294.02-13.67 294.02-17.5L294.02-17.5 294.02-18.09Q294.02-21.88 293-24.73 291.97-27.59 289.91-29.2 287.85-30.81 284.75-30.81L284.75-30.81Q281.72-30.81 279.69-29.21 277.67-27.61 276.65-24.76 275.64-21.9 275.64-18.09L275.64-18.09 275.64-17.5Q275.64-13.7 276.65-10.8 277.67-7.91 279.7-6.31 281.74-4.71 284.77-4.71ZM317.97 0L303.66 0 303.66-4 307.5-4.74 307.5-30.79 303.66-31.52 303.66-35.55 331.64-35.55 331.64-26.07 326.52-26.07 326.15-30.42 314.14-30.42 314.14-20.09 326.71-20.09 326.71-14.97 314.14-14.97 314.14-4.74 317.97-4 317.97 0ZM363.55 0.51L363.55 0.51Q358.32 0.51 354.55-1.68 350.78-3.88 348.75-7.87 346.73-11.87 346.73-17.24L346.73-17.24 346.73-18.29Q346.73-23.46 348.7-27.47 350.68-31.47 354.37-33.76 358.05-36.06 363.16-36.06L363.16-36.06Q366.74-36.06 369.85-35.02 372.95-33.98 375.31-31.98L375.31-31.98 375.31-23.58 370.31-23.58 369.63-29.03Q368.82-29.61 367.86-30.03 366.89-30.44 365.76-30.66 364.62-30.88 363.3-30.88L363.3-30.88Q360.18-30.88 357.96-29.33 355.73-27.78 354.55-24.98 353.37-22.17 353.37-18.33L353.37-18.33 353.37-17.24Q353.37-13.35 354.61-10.52 355.86-7.69 358.16-6.16 360.47-4.64 363.67-4.64L363.67-4.64Q365.26-4.64 366.82-4.99 368.38-5.35 369.6-5.93L369.6-5.93 370.31-10.94 375.27-10.94 375.27-2.61Q373.21-1.27 370.19-0.38 367.16 0.51 363.55 0.51ZM394.79 0.51L394.79 0.51Q391.23 0.51 388.32-0.82 385.42-2.15 383.33-4.58 381.24-7.01 380.12-10.29 379-13.57 379-17.5L379-17.5 379-18.04Q379-21.95 380.12-25.23 381.24-28.52 383.33-30.94 385.42-33.37 388.31-34.72 391.21-36.06 394.77-36.06L394.77-36.06Q398.41-36.06 401.32-34.72 404.24-33.37 406.34-30.94 408.44-28.52 409.55-25.23 410.66-21.95 410.66-18.04L410.66-18.04 410.66-17.5Q410.66-13.57 409.55-10.29 408.44-7.01 406.35-4.58 404.27-2.15 401.34-0.82 398.41 0.51 394.79 0.51ZM394.79-4.71L394.79-4.71Q397.92-4.71 399.97-6.31 402.02-7.91 403.03-10.79 404.05-13.67 404.05-17.5L404.05-17.5 404.05-18.09Q404.05-21.88 403.02-24.73 402-27.59 399.93-29.2 397.87-30.81 394.77-30.81L394.77-30.81Q391.74-30.81 389.72-29.21 387.69-27.61 386.68-24.76 385.66-21.9 385.66-18.09L385.66-18.09 385.66-17.5Q385.66-13.7 386.68-10.8 387.69-7.91 389.73-6.31 391.77-4.71 394.79-4.71ZM428.07 0L413.76 0 413.76-4 417.57-4.74 417.57-30.79 413.76-31.52 413.76-35.55 417.57-35.55 427.26-35.55 437.32-10.3 437.47-10.3 447.21-35.55 460.78-35.55 460.78-31.52 456.95-30.79 456.95-4.74 460.78-4 460.78 0 446.48 0 446.48-4 450.5-4.74 450.5-12.28 450.6-28.08 450.48-28.1 439.64-0.66 434.73-0.66 423.62-27.93 423.48-27.91 423.87-12.87 423.87-4.74 428.07-4 428.07 0ZM478.07 0L463.76 0 463.76-4 467.57-4.74 467.57-30.79 463.76-31.52 463.76-35.55 467.57-35.55 477.26-35.55 487.32-10.3 487.47-10.3 497.21-35.55 510.78-35.55 510.78-31.52 506.95-30.79 506.95-4.74 510.78-4 510.78 0 496.47 0 496.47-4 500.5-4.74 500.5-12.28 500.6-28.08 500.48-28.1 489.64-0.66 484.73-0.66 473.62-27.93 473.48-27.91 473.87-12.87 473.87-4.74 478.07-4 478.07 0ZM541.59 0L513.68 0 513.68-4 517.52-4.74 517.52-30.79 513.68-31.52 513.68-35.55 541-35.55 541-26.17 535.88-26.17 535.51-30.44 524.16-30.44 524.16-20.95 536.41-20.95 536.41-15.8 524.16-15.8 524.16-5.08 536.14-5.08 536.51-9.45 541.59-9.45 541.59 0ZM559.9 0L545.59 0 545.59-4 549.42-4.74 549.42-30.79 545.59-31.52 545.59-35.55 562.24-35.55Q566.27-35.55 569.16-34.3 572.05-33.06 573.58-30.71 575.11-28.37 575.11-25.1L575.11-25.1Q575.11-21.97 573.59-19.58 572.08-17.19 569.36-15.83 566.63-14.48 563.05-14.45L563.05-14.45 556.06-14.43 556.06-4.74 559.9-4 559.9 0ZM576.67 0L568.59 0 562.19-15.87 568.29-17.11 573.76-4.69 576.67-4.05 576.67 0ZM556.06-30.42L556.06-19.56 562.02-19.56Q565.32-19.56 566.9-20.91 568.49-22.27 568.49-24.85L568.49-24.85Q568.49-27.39 566.93-28.91 565.37-30.42 562.24-30.42L562.24-30.42 556.06-30.42ZM596.59 0.51L596.59 0.51Q591.36 0.51 587.59-1.68 583.82-3.88 581.79-7.87 579.77-11.87 579.77-17.24L579.77-17.24 579.77-18.29Q579.77-23.46 581.74-27.47 583.72-31.47 587.41-33.76 591.1-36.06 596.2-36.06L596.2-36.06Q599.79-36.06 602.89-35.02 605.99-33.98 608.36-31.98L608.36-31.98 608.36-23.58 603.35-23.58 602.67-29.03Q601.86-29.61 600.9-30.03 599.93-30.44 598.8-30.66 597.66-30.88 596.34-30.88L596.34-30.88Q593.22-30.88 591-29.33 588.78-27.78 587.59-24.98 586.41-22.17 586.41-18.33L586.41-18.33 586.41-17.24Q586.41-13.35 587.65-10.52 588.9-7.69 591.21-6.16 593.51-4.64 596.71-4.64L596.71-4.64Q598.3-4.64 599.86-4.99 601.42-5.35 602.64-5.93L602.64-5.93 603.35-10.94 608.31-10.94 608.31-2.61Q606.26-1.27 603.23-0.38 600.2 0.51 596.59 0.51ZM639.82 0L611.92 0 611.92-4 615.75-4.74 615.75-30.79 611.92-31.52 611.92-35.55 639.24-35.55 639.24-26.17 634.11-26.17 633.74-30.44 622.39-30.44 622.39-20.95 634.65-20.95 634.65-15.8 622.39-15.8 622.39-5.08 634.38-5.08 634.75-9.45 639.82-9.45 639.82 0Z" opacity="1" transform="matrix(1,0,0,1,0,0)" fill="#ffffff" class="undefined-text-0" data-fill-palette-color="quaternary" id="text-0"></path></svg></g></svg></g><g transform="matrix(1,0,0,1,0,24.709217678100266)"><svg viewBox="0 0 316.72104 11.21215008506596" height="11.21215008506596" width="316.72104"><g transform="matrix(1,0,0,1,0,0)"><svg width="316.72104" viewBox="4.550000190734863 -36.45000076293945 1048 37.10000228881836" height="11.21215008506596" data-palette-color="#ffffff"><path d="M6.8 0.5Q6.05 0.5 5.58 0.03 5.1-0.45 5.1-1.25L5.1-1.25 5.05-29.35Q5.05-32.6 4.55-34.25L4.55-34.25Q5.25-34.95 6.25-34.95L6.25-34.95Q7.05-34.95 7.55-34.48 8.05-34 8.05-33.2L8.05-33.2 8.05-5.15Q8.05-1.7 8.55-0.2L8.55-0.2Q7.85 0.5 6.8 0.5L6.8 0.5ZM120.66-2.85Q121.16-2.15 121.16-1.45L121.16-1.45Q121.16-0.65 120.41-0.13 119.66 0.4 118.51 0.4L118.51 0.4Q114.96 0.4 114.96-5L114.96-5 114.96-6.6Q113.71-3.25 111.41-1.3 109.11 0.65 105.71 0.65L105.71 0.65Q100.86 0.65 99.06-2.93 97.26-6.5 97.26-11.35L97.26-11.35Q97.26-18.2 99.96-22.03 102.66-25.85 107.66-25.85L107.66-25.85Q110.36-25.85 112.21-24.73 114.06-23.6 114.86-21.5L114.86-21.5 114.81-29.85Q114.81-34.05 114.31-35.75L114.31-35.75Q115.01-36.45 116.06-36.45L116.06-36.45Q116.86-36.45 117.34-36 117.81-35.55 117.81-34.7L117.81-34.7 117.76-4.55Q117.76-2 119.31-2L119.31-2Q120.26-2 120.66-2.85L120.66-2.85ZM106.36-1.4Q108.91-1.4 110.84-3.18 112.76-4.95 113.79-8 114.81-11.05 114.81-14.8L114.81-14.8Q114.81-18.65 113.29-21.28 111.76-23.9 107.91-23.9L107.91-23.9Q104.36-23.9 102.39-20.75 100.41-17.6 100.41-11.45L100.41-11.45Q100.41-7.15 101.61-4.28 102.81-1.4 106.36-1.4L106.36-1.4ZM230.62-3.05Q231.12-2.5 231.12-1.7L231.12-1.7Q231.12-0.75 230.22-0.13 229.32 0.5 228.07 0.5L228.07 0.5Q224.17 0.5 224.17-4.85L224.17-4.85 224.17-7.6Q222.47-3.8 219.5-1.63 216.52 0.55 213.07 0.55L213.07 0.55Q210.17 0.55 208.57-1.03 206.97-2.6 206.97-5.2L206.97-5.2Q206.97-8.05 209.1-10.1 211.22-12.15 215.07-13.2L215.07-13.2Q218.37-14.05 221.87-14.05L221.87-14.05Q222.62-14.05 224.02-13.95L224.02-13.95 224.02-15.25Q224.02-19.8 222.32-22.03 220.62-24.25 216.87-24.25L216.87-24.25Q214.47-24.25 212.75-23.28 211.02-22.3 211.02-20.05L211.02-20.05Q211.02-18.95 211.62-17.93 212.22-16.9 213.32-16.55L213.32-16.55Q212.67-15.65 211.37-15.65L211.37-15.65Q209.92-15.65 209-16.95 208.07-18.25 208.07-19.9L208.07-19.9Q208.07-22.85 210.5-24.35 212.92-25.85 217.22-25.85L217.22-25.85Q222.22-25.85 224.62-23.2 227.02-20.55 227.02-15.1L227.02-15.1 227.02-4.55Q227.02-1.9 228.87-1.9L228.87-1.9Q229.32-1.9 229.82-2.2 230.32-2.5 230.62-3.05L230.62-3.05ZM214.17-1.6Q216.37-1.6 218.67-3.2 220.97-4.8 222.5-7.35 224.02-9.9 224.07-12.6L224.07-12.6 222.87-12.65Q220.97-12.65 218.95-12.38 216.92-12.1 215.57-11.6L215.57-11.6Q212.97-10.75 211.57-9.25 210.17-7.75 210.17-5.7L210.17-5.7Q210.17-3.95 211.15-2.78 212.12-1.6 214.17-1.6L214.17-1.6ZM337.33-5.15Q337.33-1.75 337.78-0.2L337.78-0.2Q337.08 0.5 336.08 0.5L336.08 0.5Q335.33 0.5 334.88 0.03 334.43-0.45 334.43-1.25L334.43-1.25 334.38-15.05Q334.38-19.6 333.03-21.8 331.68-24 328.58-24L328.58-24Q326.73-24 324.96-22.83 323.18-21.65 322.01-19 320.83-16.35 320.83-12.2L320.83-12.2Q320.83-5.3 320.91-3.33 320.98-1.35 321.33-0.2L321.33-0.2Q320.63 0.5 319.63 0.5L319.63 0.5Q318.88 0.5 318.41 0 317.93-0.5 317.93-1.35L317.93-1.35 317.88-34.7Q317.88-35.55 318.36-36 318.83-36.45 319.63-36.45L319.63-36.45Q320.68-36.45 321.38-35.75L321.38-35.75Q321.08-34.85 320.98-33.5 320.88-32.15 320.83-29.55L320.83-29.55 320.78-19.75Q321.88-22.6 324.16-24.23 326.43-25.85 329.28-25.85L329.28-25.85Q333.38-25.85 335.33-23.2 337.28-20.55 337.28-15.3L337.28-15.3 337.33-5.15ZM436.79 0.65Q431.49 0.65 428.57-2.85 425.64-6.35 425.64-12.6L425.64-12.6Q425.64-18.85 428.57-22.35 431.49-25.85 436.79-25.85L436.79-25.85Q442.04-25.85 444.99-22.35 447.94-18.85 447.94-12.6L447.94-12.6Q447.94-6.35 444.99-2.85 442.04 0.65 436.79 0.65L436.79 0.65ZM436.79-1Q440.59-1 442.67-4.03 444.74-7.05 444.74-12.6L444.74-12.6Q444.74-18.15 442.67-21.18 440.59-24.2 436.79-24.2L436.79-24.2Q432.94-24.2 430.87-21.18 428.79-18.15 428.79-12.6L428.79-12.6Q428.79-7.05 430.87-4.03 432.94-1 436.79-1L436.79-1ZM647.31-34.55Q647.91-34.55 647.91-33.7L647.91-33.7Q647.91-33.15 647.66-32.63 647.41-32.1 647.01-31.95L647.01-31.95Q639.01-32.65 633.01-32.7L633.01-32.7 633.06-18.95 645.86-18.95Q646.01-18.45 646.01-18L646.01-18Q646.01-17.45 645.86-17L645.86-17 633.06-17 633.11-5.15Q633.11-1.7 633.61-0.2L633.61-0.2Q632.91 0.5 631.86 0.5L631.86 0.5Q631.11 0.5 630.64 0.03 630.16-0.45 630.16-1.25L630.16-1.25 630.11-29.1Q630.11-32.1 629.61-33.75L629.61-33.75Q630.06-34.2 630.59-34.38 631.11-34.55 631.96-34.55L631.96-34.55 647.31-34.55ZM758.62-3.05Q759.12-2.5 759.12-1.7L759.12-1.7Q759.12-0.75 758.22-0.13 757.32 0.5 756.07 0.5L756.07 0.5Q752.17 0.5 752.17-4.85L752.17-4.85 752.17-7.6Q750.47-3.8 747.5-1.63 744.52 0.55 741.07 0.55L741.07 0.55Q738.17 0.55 736.57-1.03 734.97-2.6 734.97-5.2L734.97-5.2Q734.97-8.05 737.1-10.1 739.22-12.15 743.07-13.2L743.07-13.2Q746.37-14.05 749.87-14.05L749.87-14.05Q750.62-14.05 752.02-13.95L752.02-13.95 752.02-15.25Q752.02-19.8 750.32-22.03 748.62-24.25 744.87-24.25L744.87-24.25Q742.47-24.25 740.75-23.28 739.02-22.3 739.02-20.05L739.02-20.05Q739.02-18.95 739.62-17.93 740.22-16.9 741.32-16.55L741.32-16.55Q740.67-15.65 739.37-15.65L739.37-15.65Q737.92-15.65 737-16.95 736.07-18.25 736.07-19.9L736.07-19.9Q736.07-22.85 738.5-24.35 740.92-25.85 745.22-25.85L745.22-25.85Q750.22-25.85 752.62-23.2 755.02-20.55 755.02-15.1L755.02-15.1 755.02-4.55Q755.02-1.9 756.87-1.9L756.87-1.9Q757.32-1.9 757.82-2.2 758.32-2.5 758.62-3.05L758.62-3.05ZM742.17-1.6Q744.37-1.6 746.67-3.2 748.97-4.8 750.5-7.35 752.02-9.9 752.07-12.6L752.07-12.6 750.87-12.65Q748.97-12.65 746.95-12.38 744.92-12.1 743.57-11.6L743.57-11.6Q740.97-10.75 739.57-9.25 738.17-7.75 738.17-5.7L738.17-5.7Q738.17-3.95 739.15-2.78 740.12-1.6 742.17-1.6L742.17-1.6ZM849.98 0.5Q848.03 0.5 846.91-0.8 845.78-2.1 845.78-4.45L845.78-4.45 845.78-34.7Q845.78-35.55 846.26-36 846.73-36.45 847.53-36.45L847.53-36.45Q848.53-36.45 849.23-35.75L849.23-35.75Q848.93-34.75 848.83-32.65 848.73-30.55 848.73-26L848.73-26 848.73-4.55Q848.73-1.9 850.68-1.9L850.68-1.9Q851.33-1.9 851.88-2.2 852.43-2.5 852.68-3.05L852.68-3.05Q853.18-2.5 853.18-1.7L853.18-1.7Q853.18-0.7 852.23-0.1 851.28 0.5 849.98 0.5L849.98 0.5ZM944.89 0.5Q942.94 0.5 941.82-0.8 940.69-2.1 940.69-4.45L940.69-4.45 940.69-34.7Q940.69-35.55 941.17-36 941.64-36.45 942.44-36.45L942.44-36.45Q943.44-36.45 944.14-35.75L944.14-35.75Q943.84-34.75 943.74-32.65 943.64-30.55 943.64-26L943.64-26 943.64-4.55Q943.64-1.9 945.59-1.9L945.59-1.9Q946.24-1.9 946.79-2.2 947.34-2.5 947.59-3.05L947.59-3.05Q948.09-2.5 948.09-1.7L948.09-1.7Q948.09-0.7 947.14-0.1 946.19 0.5 944.89 0.5L944.89 0.5ZM1042.55 0.65Q1037.9 0.65 1035.63-1.07 1033.35-2.8 1033.35-5.55L1033.35-5.55Q1033.35-8.05 1035.45-8.05L1035.45-8.05Q1035.85-8.05 1036.05-8L1036.05-8Q1035.8-7.2 1035.85-6.1L1035.85-6.1Q1035.9-3.7 1037.75-2.38 1039.6-1.05 1042.7-1.05L1042.7-1.05Q1045.85-1.05 1047.75-2.18 1049.65-3.3 1049.65-5.35L1049.65-5.35Q1049.65-6.7 1048.93-7.63 1048.2-8.55 1047.08-9.18 1045.95-9.8 1044-10.65L1044-10.65 1042.2-11.5Q1039.3-12.9 1037.93-13.75 1036.55-14.6 1035.5-16.07 1034.45-17.55 1034.45-19.8L1034.45-19.8Q1034.45-22.9 1036.88-24.4 1039.3-25.9 1043.05-25.9L1043.05-25.9Q1047.1-25.9 1049.35-24.58 1051.6-23.25 1051.6-20.85L1051.6-20.85Q1051.6-19.2 1050.25-18.85L1050.25-18.85Q1049.85-18.75 1049.6-18.75L1049.6-18.75Q1049.4-18.75 1048.9-18.85L1048.9-18.85Q1049.05-19.4 1049.05-19.9L1049.05-19.9Q1049.05-20.4 1049-20.6L1049-20.6Q1048.9-22.4 1047.3-23.33 1045.7-24.25 1042.9-24.25L1042.9-24.25Q1040.45-24.25 1038.85-23.35 1037.25-22.45 1037.25-20.55L1037.25-20.55Q1037.25-18.9 1038.13-17.78 1039-16.65 1040.2-15.98 1041.4-15.3 1043.85-14.15L1043.85-14.15 1045.25-13.5Q1047.7-12.4 1049.13-11.55 1050.55-10.7 1051.55-9.38 1052.55-8.05 1052.55-6.15L1052.55-6.15Q1052.55-3.35 1050.23-1.35 1047.9 0.65 1042.55 0.65L1042.55 0.65Z" opacity="1" transform="matrix(1,0,0,1,0,0)" fill="#ffffff" class="undefined-text-1" data-fill-palette-color="quaternary" id="text-1"></path></svg></g></svg></g></svg></g></svg></g><g transform="matrix(1,0,0,1,83.36324507463056,0)"><svg viewBox="0 0 189.3940298507389 49.64333024869573" height="49.64333024869573" width="189.3940298507389"><g><svg xmlns="http://www.w3.org/2000/svg" xmlns:xlink="http://www.w3.org/1999/xlink" version="1.0" x="0" y="0" viewBox="5.061999797821045 38.22100067138672 89.87600708007812 23.557998657226562" enable-background="new 0 0 100 100" xml:space="preserve" height="49.64333024869573" width="189.3940298507389" class="icon-icon-0" data-fill-palette-color="accent" id="icon-0"><polygon fill="#729343" points="94.938,46.021 85.172,46.021 85.172,43.973 89.941,42.292 94.938,43.973 " data-fill-palette-color="accent"></polygon><path fill="#729343" d="M85.172 46.86v12.076h3.464v-5.407h0.005c0.016-0.769 0.641-1.387 1.413-1.387s1.399 0.618 1.414 1.387h0.005v5.407h3.465V46.86H85.172z" data-fill-palette-color="accent"></path><polygon fill="#729343" points="14.829,46.021 5.062,46.021 5.062,43.973 9.833,42.292 14.829,43.973 " data-fill-palette-color="accent"></polygon><path fill="#729343" d="M5.062 46.86v12.076h3.466v-5.407h0.004c0.015-0.769 0.641-1.387 1.413-1.387 0.772 0 1.399 0.618 1.414 1.387h0.004v5.407h3.466V46.86H5.062z" data-fill-palette-color="accent"></path><path fill="#729343" d="M15.154 46.86v12.076h28.444V46.86H15.154zM18.725 57.229H16.97v-3.533h1.755V57.229zM18.725 52.112H16.97V48.58h1.755V52.112zM22.615 57.229H20.86v-3.533h1.755V57.229zM22.615 52.112H20.86V48.58h1.755V52.112zM26.506 57.229h-1.755v-3.533h1.755V57.229zM26.506 52.112h-1.755V48.58h1.755V52.112zM30.397 57.229h-1.755v-3.533h1.755V57.229zM30.397 52.112h-1.755V48.58h1.755V52.112zM34.288 57.229h-1.754v-3.533h1.754V57.229zM34.288 52.112h-1.754V48.58h1.754V52.112zM38.179 57.229h-1.755v-3.533h1.755V57.229zM38.179 52.112h-1.755V48.58h1.755V52.112zM42.07 57.229h-1.755v-3.533h1.755V57.229zM42.07 52.112h-1.755V48.58h1.755V52.112z" data-fill-palette-color="accent"></path><rect x="15.154" y="44.789" fill="#729343" width="28.444" height="1.232" data-fill-palette-color="accent"></rect><path fill="#729343" d="M56.401 46.86v12.076h28.444V46.86H56.401zM59.973 57.229h-1.755v-3.533h1.755V57.229zM59.973 52.112h-1.755V48.58h1.755V52.112zM63.863 57.229h-1.754v-3.533h1.754V57.229zM63.863 52.112h-1.754V48.58h1.754V52.112zM67.755 57.229H66v-3.533h1.755V57.229zM67.755 52.112H66V48.58h1.755V52.112zM71.646 57.229h-1.755v-3.533h1.755V57.229zM71.646 52.112h-1.755V48.58h1.755V52.112zM75.535 57.229h-1.753v-3.533h1.753V57.229zM75.535 52.112h-1.753V48.58h1.753V52.112zM79.428 57.229h-1.755v-3.533h1.755V57.229zM79.428 52.112h-1.755V48.58h1.755V52.112zM83.317 57.229h-1.754v-3.533h1.754V57.229zM83.317 52.112h-1.754V48.58h1.754V52.112z" data-fill-palette-color="accent"></path><rect x="56.401" y="44.789" fill="#729343" width="28.444" height="1.232" data-fill-palette-color="accent"></rect><path fill="#729343" d="M43.923 58.937h4.312v-6.73h0.005c0.019-0.956 0.798-1.725 1.759-1.725s1.741 0.769 1.759 1.725h0.006v6.73h4.312v-15.03H43.923V58.937zM50 45.738c0.655 0 1.187 0.531 1.187 1.186 0 0.656-0.532 1.188-1.187 1.188s-1.186-0.532-1.186-1.188C48.814 46.269 49.345 45.738 50 45.738z" data-fill-palette-color="accent"></path><polygon fill="#729343" points="49.859,38.221 43.923,40.312 43.923,42.861 56.077,42.861 56.077,40.312 " data-fill-palette-color="accent"></polygon><rect x="5.062" y="59.911" fill="#729343" width="89.875" height="1.868" data-fill-palette-color="accent"></rect></svg></g></svg></g><g></g></svg></g></svg><rect width="356.12052" height="131.53075801186196" fill="none" stroke="none" visibility="hidden"></rect></g></svg></g></svg>